<svg width="21" height="21" viewBox="0 0 21 21" fill="none" xmlns="http://www.w3.org/2000/svg">
<g clip-path="url(#clip0_382_4913)">
<path d="M20.1777 10.74C20.1777 5.225 15.6977 0.75 10.1777 0.75C4.65773 0.75 0.177734 5.225 0.177734 10.74C0.177734 13.7775 1.55773 16.515 3.71773 18.3525C3.73773 18.3725 3.75773 18.3725 3.75773 18.3925C3.93773 18.5325 4.11773 18.6725 4.31773 18.8125C4.41773 18.8725 4.49773 18.9513 4.59773 19.0312C6.25032 20.1517 8.20112 20.7504 10.1977 20.75C12.1943 20.7504 14.1452 20.1517 15.7977 19.0312C15.8977 18.9713 15.9777 18.8925 16.0777 18.8312C16.2577 18.6925 16.4577 18.5525 16.6377 18.4125C16.6577 18.3925 16.6777 18.3925 16.6777 18.3725C18.7977 16.5137 20.1777 13.7775 20.1777 10.74ZM10.1777 19.4912C8.29773 19.4912 6.57773 18.8913 5.15773 17.8925C5.17773 17.7325 5.21773 17.5737 5.25773 17.4137C5.37691 16.9801 5.55169 16.5638 5.77773 16.175C5.99773 15.795 6.25773 15.455 6.57773 15.155C6.87773 14.855 7.23773 14.5763 7.59773 14.3563C7.97773 14.1363 8.37773 13.9762 8.81773 13.8562C9.26116 13.7367 9.71849 13.6766 10.1777 13.6775C11.541 13.6678 12.8543 14.1908 13.8377 15.135C14.2977 15.595 14.6577 16.135 14.9177 16.7537C15.0577 17.1138 15.1577 17.4937 15.2177 17.8925C13.7417 18.9302 11.982 19.4884 10.1777 19.4912ZM7.11773 10.2413C6.94151 9.83778 6.85289 9.4015 6.85773 8.96125C6.85773 8.5225 6.93773 8.0825 7.11773 7.6825C7.29773 7.2825 7.53773 6.92375 7.83773 6.62375C8.13773 6.32375 8.49773 6.085 8.89773 5.905C9.29773 5.725 9.73773 5.645 10.1777 5.645C10.6377 5.645 11.0577 5.725 11.4577 5.905C11.8577 6.085 12.2177 6.325 12.5177 6.62375C12.8177 6.92375 13.0577 7.28375 13.2377 7.6825C13.4177 8.0825 13.4977 8.5225 13.4977 8.96125C13.4977 9.42125 13.4177 9.84125 13.2377 10.24C13.064 10.6341 12.82 10.9933 12.5177 11.3C12.2109 11.6019 11.8517 11.8454 11.4577 12.0188C10.6313 12.3584 9.7042 12.3584 8.87773 12.0188C8.48375 11.8454 8.12457 11.6019 7.81773 11.3C7.515 10.9977 7.27685 10.6371 7.11773 10.24V10.2413ZM16.3977 16.8738C16.3977 16.8337 16.3777 16.8138 16.3777 16.7738C16.181 16.148 15.8911 15.5555 15.5177 15.0163C15.144 14.473 14.6847 13.9938 14.1577 13.5975C13.7553 13.2947 13.319 13.0397 12.8577 12.8375C13.0676 12.6991 13.262 12.5386 13.4377 12.3587C13.7359 12.0644 13.9978 11.7354 14.2177 11.3787C14.6607 10.651 14.8894 9.81311 14.8777 8.96125C14.8839 8.33064 14.7614 7.7054 14.5177 7.12375C14.2771 6.5633 13.9308 6.05445 13.4977 5.625C13.0653 5.20004 12.5563 4.86074 11.9977 4.625C11.4151 4.38174 10.7891 4.25968 10.1577 4.26625C9.52632 4.26007 8.90026 4.38256 8.31773 4.62625C7.7543 4.86148 7.24412 5.20798 6.81773 5.645C6.39279 6.07698 6.05348 6.58552 5.81773 7.14375C5.57405 7.7254 5.45155 8.35064 5.45773 8.98125C5.45773 9.42125 5.51773 9.84125 5.63773 10.24C5.75773 10.66 5.91773 11.04 6.13773 11.3988C6.33773 11.7587 6.61773 12.0788 6.91773 12.3788C7.09773 12.5588 7.29773 12.7175 7.51773 12.8575C7.05503 13.0651 6.61863 13.3269 6.21773 13.6375C5.69773 14.0375 5.23773 14.5162 4.85773 15.0363C4.48056 15.5733 4.19033 16.1664 3.99773 16.7938C3.97773 16.8337 3.97773 16.8738 3.97773 16.8937C2.39773 15.295 1.41773 13.1375 1.41773 10.74C1.41773 5.925 5.35773 1.98875 10.1777 1.98875C14.9977 1.98875 18.9377 5.925 18.9377 10.74C18.9351 13.0399 18.0219 15.2453 16.3977 16.8738Z" fill="#14161D"/>
</g>
<defs>
<clipPath id="clip0_382_4913">
<rect width="20" height="20" fill="white" transform="translate(0.177734 0.75)"/>
</clipPath>
</defs>
</svg>
