<svg width="24" height="24" viewBox="0 0 24 24" fill="none" xmlns="http://www.w3.org/2000/svg">
<path d="M20.3408 11.6419L11.8551 4.27693C11.7899 4.22078 11.7068 4.18933 11.6192 4.18933H9.63145C9.46524 4.18933 9.38887 4.39597 9.51465 4.50378L17.3805 11.3319H4.23633C4.1375 11.3319 4.05664 11.4128 4.05664 11.5116V12.8593C4.05664 12.9581 4.1375 13.0389 4.23633 13.0389H17.3782L9.5124 19.8671C9.38662 19.9771 9.46299 20.1815 9.6292 20.1815H11.6844C11.7271 20.1815 11.7697 20.1658 11.8012 20.1366L20.3408 12.729C20.4186 12.6614 20.4809 12.5779 20.5236 12.4841C20.5664 12.3903 20.5885 12.2885 20.5885 12.1854C20.5885 12.0824 20.5664 11.9805 20.5236 11.8868C20.4809 11.793 20.4186 11.7095 20.3408 11.6419Z" fill="white"/>
</svg>
