<svg width="135" height="26" viewBox="0 0 135 26" fill="none" xmlns="http://www.w3.org/2000/svg">
<g clip-path="url(#clip0_250_630)">
<path d="M8.15343 11.3062L13.4055 6.46536L18.6603 11.3088L21.7164 8.49193L13.4055 0.831238L5.09741 8.48937L8.15343 11.3062Z" fill="#6B8CCE" fill-opacity="0.2"/>
<path d="M5.99517 13.2947L2.93921 10.4778L-0.116906 13.2948L2.93906 16.1116L5.99517 13.2947Z" fill="#6B8CCE" fill-opacity="0.2"/>
<path d="M8.15352 15.2843L13.4056 20.1252L18.6602 15.282L21.7179 18.0973L21.7164 18.0988L13.4056 25.7593L5.09729 18.1014L5.09302 18.0975L8.15352 15.2843Z" fill="#6B8CCE" fill-opacity="0.2"/>
<path d="M23.8721 16.113L26.9282 13.296L23.8723 10.4792L20.8161 13.2962L23.8721 16.113Z" fill="#6B8CCE" fill-opacity="0.2"/>
<path d="M16.5054 13.2937H16.5066L13.4056 10.4352L11.1138 12.5476H11.1136L10.8504 12.7904L10.3073 13.2911L10.303 13.295L10.3073 13.2992L13.4056 16.155L16.5066 13.2966L16.5081 13.295L16.5054 13.2937Z" fill="#6B8CCE" fill-opacity="0.2"/>
<path d="M31.6921 6.87152H38.3388C39.9885 6.87152 41.2359 7.26175 42.0814 8.04221C42.7356 8.64666 43.0626 9.39581 43.0626 10.2895V10.3273C43.0626 10.7049 43.012 11.0386 42.9101 11.3281C42.8085 11.6179 42.6726 11.8788 42.5028 12.1117C42.3334 12.3448 42.1365 12.5494 41.9126 12.7254C41.6885 12.9018 41.4478 13.053 41.19 13.1786C42.0192 13.4684 42.672 13.8616 43.1479 14.3589C43.6236 14.8565 43.8617 15.5458 43.8617 16.4269V16.4645C43.8617 17.0689 43.7357 17.5975 43.4834 18.051C43.2312 18.504 42.8698 18.8818 42.3992 19.1841C41.9286 19.4863 41.3628 19.7127 40.7015 19.8639C40.0402 20.0149 39.3073 20.0903 38.5031 20.0903H31.6921V6.87152ZM37.6743 12.2156C38.3711 12.2156 38.9243 12.1058 39.3338 11.8853C39.7435 11.6649 39.9483 11.3092 39.9483 10.8183V10.7805C39.9483 10.3401 39.7706 10.0034 39.4156 9.77029C39.0604 9.53737 38.5482 9.42082 37.8791 9.42082H34.765V12.2156H37.6743ZM38.5144 17.5412C39.211 17.5412 39.7569 17.4251 40.1534 17.192C40.5494 16.959 40.7476 16.597 40.7476 16.1059V16.0683C40.7476 15.6277 40.5631 15.2784 40.1944 15.0201C39.8255 14.7624 39.2315 14.6332 38.4119 14.6332H34.765V17.5414H38.5144V17.5412Z" fill="#6B8CCE" fill-opacity="0.2"/>
<path d="M47.8203 6.87152H50.9757V20.0907H47.8203V6.87152Z" fill="#6B8CCE" fill-opacity="0.2"/>
<path d="M55.7546 6.87152H58.6635L65.3836 15.0108V6.87152H68.4978V20.0907H65.8141L58.8685 11.6872V20.0907H55.7546V6.87152Z" fill="#6B8CCE" fill-opacity="0.2"/>
<path d="M78.0499 6.77722H80.959L87.1057 20.0907H83.807L82.4957 17.126H76.4313L75.1202 20.0907H71.9031L78.0499 6.77722ZM81.3689 14.5574L79.4634 10.2708L77.5584 14.5574H81.3689Z" fill="#6B8CCE" fill-opacity="0.2"/>
<path d="M90.5115 6.87158H93.421L100.141 15.0109V6.87158H103.255V20.0908H100.571L93.6256 11.6872V20.0908H90.5115V6.87158Z" fill="#6B8CCE" fill-opacity="0.2"/>
<path d="M114.61 20.3171C113.558 20.3171 112.582 20.1407 111.68 19.7885C110.778 19.4363 110 18.9545 109.345 18.3437C108.689 17.7332 108.176 17.0124 107.808 16.1815C107.439 15.3505 107.255 14.4629 107.255 13.5186V13.481C107.255 12.5367 107.439 11.6525 107.808 10.8278C108.177 10.0032 108.689 9.27925 109.345 8.6561C110 8.03295 110.786 7.54172 111.7 7.18299C112.615 6.82426 113.627 6.6449 114.733 6.6449C115.402 6.6449 116.013 6.6955 116.566 6.79591C117.119 6.89691 117.621 7.03513 118.072 7.21134C118.523 7.38775 118.939 7.60177 119.322 7.85339C119.704 8.10541 120.059 8.38223 120.387 8.68445L118.38 10.8183C117.819 10.3527 117.249 9.98726 116.669 9.72303C116.088 9.45881 115.436 9.3265 114.712 9.3265C114.111 9.3265 113.554 9.43361 113.043 9.64763C112.53 9.86164 112.09 10.1574 111.721 10.535C111.352 10.9126 111.066 11.3503 110.86 11.8474C110.656 12.345 110.554 12.8768 110.554 13.4432V13.4808C110.554 14.0473 110.656 14.5826 110.86 15.0858C111.066 15.5897 111.348 16.0301 111.711 16.4077C112.072 16.7854 112.51 17.0846 113.022 17.305C113.534 17.5255 114.098 17.6353 114.712 17.6353C115.532 17.6353 116.224 17.4969 116.791 17.2199C117.358 16.9433 117.922 16.5655 118.482 16.0868L120.49 17.9565C120.121 18.3217 119.738 18.6491 119.342 18.9383C118.946 19.2282 118.513 19.4766 118.041 19.6845C117.57 19.8921 117.054 20.0498 116.495 20.1565C115.934 20.2634 115.306 20.3171 114.61 20.3171Z" fill="#6B8CCE" fill-opacity="0.2"/>
<path d="M124.203 6.87152H135V9.45882H127.317V12.1404H134.078V14.7275H127.317V17.5036H135.103V20.0907H124.203V6.87152Z" fill="#6B8CCE" fill-opacity="0.2"/>
</g>
<defs>
<clipPath id="clip0_250_630">
<rect width="135" height="24.9281" fill="white" transform="translate(0 0.831238)"/>
</clipPath>
</defs>
</svg>
