<svg width="395" height="395" viewBox="0 35 80 395" fill="none" xmlns="http://www.w3.org/2000/svg">
<g opacity="0.2">
<path d="M83.2353 249.613C95.4084 249.272 106.122 243.054 112.369 230.806C121.948 212.026 113.35 191.915 83.9272 177.01L94.7558 155.78L73.7782 145.153L62.9496 166.383L51.5072 160.586L47.1482 158.378L57.9768 137.148L36.9991 126.521L26.1705 147.751L7.37233 138.228L-3.45623 159.458L15.3419 168.981L-24.5017 247.096L-43.2998 237.573L-54.1284 258.803L-35.3302 268.326L-46.02 289.283L-25.0423 299.91L-14.4914 279.225L-10.1324 281.433L1.31001 287.229L-9.37976 308.187L11.5979 318.814L22.2877 297.856L25.5569 299.512C56.6148 315.246 78.7971 311.413 89.4868 290.455C97.2612 275.213 94.3635 260.73 83.2353 249.613ZM35.7748 179.332L40.9511 181.954L41.0899 181.682L69.9683 196.311C83.3177 203.074 88.041 211.289 83.182 220.815C78.3231 230.341 68.4684 231.514 55.3914 224.89L21.3367 207.638L35.7748 179.332ZM34.4784 277.316L0.968606 260.341L1.10744 260.069L-4.06885 257.447L11.0634 227.779L49.7495 247.377C63.9162 254.554 69.0456 263.317 63.909 273.388C58.4947 284.003 48.6452 284.493 34.4784 277.316Z" stroke="url(#paint0_linear_250_552)" stroke-miterlimit="10"/>
<path d="M72.5039 399.942L68.7551 388.454C34.6431 395.477 -1.98843 391.293 -35.247 374.436C-68.5057 357.58 -93.4843 330.539 -107.897 298.922L-119.415 302.673C-104.065 337.161 -77.0534 366.945 -40.5235 385.459C-4.81138 403.559 35.24 407.764 72.5039 399.942Z" stroke="url(#paint1_linear_250_552)" stroke-miterlimit="10"/>
<path d="M-106.266 259.379L-94.7493 255.629C-99.6156 228.169 -95.988 198.851 -82.2551 171.916C-48.8247 106.345 31.7912 80.0958 97.4855 113.39C124.199 126.929 144.427 148.479 156.97 173.666L168.486 169.916C155.007 141.857 132.746 117.565 103.034 102.507C31.3429 66.1734 -56.6766 94.8337 -93.1587 166.39C-108.417 196.318 -112.342 228.909 -106.266 259.379Z" stroke="url(#paint2_linear_250_552)" stroke-miterlimit="10"/>
<path d="M126.762 55.9827C80.1487 32.3591 28.3307 29.0368 -18.4098 42.6678C-22.3841 43.735 -26.2245 45.2123 -29.9263 46.4177L-26.1779 57.9041L-21.8938 71.0313C-61.3888 85.2528 -95.6531 114.109 -116.183 154.376C-138.655 198.452 -140.099 247.708 -124.401 290.928L-112.885 287.178L-99.7231 282.893C-87.3727 315.857 -63.2283 344.528 -29.1545 361.796C42.5368 398.13 130.556 369.47 167.038 297.914C184.378 263.904 186.968 226.528 177.497 192.626L190.659 188.34L202.175 184.59C201.109 180.626 199.904 176.934 198.427 173.104C184.068 133.986 155.314 99.5554 115.243 79.2473C74.9001 58.8012 30.4662 55.7975 -9.83207 67.5576L-14.1161 54.4304C29.7452 41.7369 77.8712 44.8999 121.486 67.0039C212.803 113.284 249.217 224.866 202.748 316.011C180.553 359.543 143.4 390.701 100.615 405.994L96.3307 392.867C135.553 378.507 170.09 349.79 190.481 309.794C209.069 273.336 213.181 233.65 205.374 196.483L193.857 200.233C200.866 234.256 196.912 270.941 179.989 304.135C159.043 345.218 122.732 373.379 81.4769 384.997L89.5094 409.61C45.6481 422.304 -2.47787 419.141 -46.0923 397.037C-137.41 350.757 -173.824 239.175 -127.354 148.029C-107.102 108.306 -74.3393 79.0319 -36.4701 62.6168L-40.2187 51.1305C-81.1057 68.7551 -116.346 100.198 -138.124 142.914C-187.646 240.045 -148.822 359.011 -51.5071 408.33C-4.89411 431.954 46.9239 435.276 93.6644 421.645C97.6387 420.578 101.479 419.1 105.181 417.895C150.984 401.392 190.887 368.205 214.608 321.68C262.761 224.54 224.076 105.302 126.762 55.9827ZM109.284 90.2643C146.628 109.191 173.078 140.741 186.499 176.988L173.337 181.274L161.821 185.024C163.298 188.854 164.503 192.546 165.569 196.51C174.103 227.541 171.81 261.643 155.996 292.66C122.566 358.23 41.9497 384.48 -23.7446 351.186C-54.5473 335.575 -76.7932 309.236 -88.2065 279.143C-89.6839 275.312 -90.8888 271.62 -91.955 267.656L-103.472 271.406L-116.633 275.692C-127.176 238.508 -124.283 197.176 -105.418 160.174C-65.4681 81.816 30.7775 50.4772 109.284 90.2643Z" stroke="url(#paint3_linear_250_552)" stroke-miterlimit="10"/>
</g>
<defs>
<linearGradient id="paint0_linear_250_552" x1="-23.378" y1="198.516" x2="103.399" y2="263.18" gradientUnits="userSpaceOnUse">
<stop stop-color="#0C3483"/>
<stop offset="1" stop-color="#A2B6DF"/>
<stop offset="1" stop-color="#6B8CCE"/>
</linearGradient>
<linearGradient id="paint1_linear_250_552" x1="-126.143" y1="315.87" x2="65.5432" y2="413.595" gradientUnits="userSpaceOnUse">
<stop stop-color="#0C3483"/>
<stop offset="1" stop-color="#A2B6DF"/>
<stop offset="1" stop-color="#6B8CCE"/>
</linearGradient>
<linearGradient id="paint2_linear_250_552" x1="-80.2582" y1="141.087" x2="128.834" y2="247.69" gradientUnits="userSpaceOnUse">
<stop stop-color="#0C3483"/>
<stop offset="1" stop-color="#A2B6DF"/>
<stop offset="1" stop-color="#6B8CCE"/>
</linearGradient>
<linearGradient id="paint3_linear_250_552" x1="-138.193" y1="143.05" x2="214.105" y2="322.666" gradientUnits="userSpaceOnUse">
<stop stop-color="#0C3483"/>
<stop offset="1" stop-color="#A2B6DF"/>
<stop offset="1" stop-color="#6B8CCE"/>
</linearGradient>
</defs>
</svg>
