<svg width="18" height="17" viewBox="0 0 18 17" fill="none" xmlns="http://www.w3.org/2000/svg">
<path d="M8.67778 16.4167C13.05 16.4167 16.5944 12.8723 16.5944 8.50004C16.5944 4.12778 13.05 0.583374 8.67778 0.583374C4.30552 0.583374 0.761108 4.12778 0.761108 8.50004C0.761108 12.8723 4.30552 16.4167 8.67778 16.4167Z" stroke="#14161D" stroke-linecap="round" stroke-linejoin="round"/>
<path d="M0.761108 8.5H16.5944" stroke="#14161D" stroke-linecap="round" stroke-linejoin="round"/>
<path d="M8.67777 16.4167C10.4267 16.4167 11.8444 12.8723 11.8444 8.50004C11.8444 4.12778 10.4267 0.583374 8.67777 0.583374C6.92886 0.583374 5.51111 4.12778 5.51111 8.50004C5.51111 12.8723 6.92886 16.4167 8.67777 16.4167Z" stroke="#14161D" stroke-linecap="round" stroke-linejoin="round"/>
<path d="M3.07983 3.01465C4.51247 4.44729 6.49164 5.3334 8.67774 5.3334C10.8639 5.3334 12.8431 4.44729 14.2757 3.01465" stroke="#14161D" stroke-linecap="round" stroke-linejoin="round"/>
<path d="M14.2757 13.9855C12.8431 12.5529 10.8639 11.6667 8.67774 11.6667C6.49164 11.6667 4.51247 12.5529 3.07983 13.9855" stroke="#14161D" stroke-linecap="round" stroke-linejoin="round"/>
</svg>
