<svg width="170" height="26" viewBox="0 0 170 26" fill="none" xmlns="http://www.w3.org/2000/svg">
<path fill-rule="evenodd" clip-rule="evenodd" d="M31.4264 7.2193V14.3343H24.2543V8.13456C24.2543 7.62907 23.8353 7.2193 23.3187 7.2193H20.8979V24.1744C20.8979 24.68 21.3167 25.0899 21.8335 25.0899H24.2543V17.2037H31.4264V24.1744C31.4264 24.68 31.8451 25.0899 32.362 25.0899H34.7826V8.13456C34.7826 7.62907 34.3638 7.2193 33.8469 7.2193H31.4264Z" fill="#6B8CCE" fill-opacity="0.5"/>
<path fill-rule="evenodd" clip-rule="evenodd" d="M45.5047 11.4324V19.9008C45.5047 20.6703 45.1037 21.3998 44.4227 21.7847C42.5222 22.8592 40.5555 21.5169 40.5555 19.7473V12.3477C40.5555 11.8422 40.1366 11.4324 39.6199 11.4324H37.1895V20.049C37.1895 22.8216 39.5077 25.0899 42.3413 25.0899H43.7189C46.5525 25.0899 48.8707 22.8216 48.8707 20.049V12.3477C48.8707 11.8422 48.452 11.4324 47.9353 11.4324H45.5047Z" fill="#6B8CCE" fill-opacity="0.5"/>
<path fill-rule="evenodd" clip-rule="evenodd" d="M82.8371 25.0898H85.2578V13.0976C85.2578 12.5919 84.8388 12.1821 84.3222 12.1821H81.9016V24.1743C81.9016 24.6801 82.3204 25.0898 82.8371 25.0898Z" fill="#6B8CCE" fill-opacity="0.5"/>
<path fill-rule="evenodd" clip-rule="evenodd" d="M83.5796 10.8827C84.6141 10.8827 85.4527 10.0621 85.4527 9.0499C85.4527 8.03768 84.6141 7.21729 83.5796 7.21729C82.545 7.21729 81.7065 8.03768 81.7065 9.0499C81.7065 10.0621 82.545 10.8827 83.5796 10.8827Z" fill="#6B8CCE" fill-opacity="0.5"/>
<path fill-rule="evenodd" clip-rule="evenodd" d="M60.682 19.4193C60.682 21.0485 59.3199 22.133 57.6547 22.133C55.9896 22.133 54.6272 21.0485 54.6272 19.4193V17.0943C54.6272 15.465 55.9896 14.3805 57.6547 14.3805C59.3199 14.3805 60.682 15.465 60.682 17.0943V19.4193ZM57.6547 11.4239C54.1341 11.4239 51.2537 13.888 51.2537 17.3326V19.1957C51.2537 22.6403 54.1341 25.0897 57.6547 25.0897C61.1751 25.0897 64.0558 22.6403 64.0558 19.1957V17.3326C64.0558 13.888 61.1751 11.4239 57.6547 11.4239Z" fill="#6B8CCE" fill-opacity="0.5"/>
<path fill-rule="evenodd" clip-rule="evenodd" d="M75.9171 19.4193C75.9171 21.0487 74.5548 22.1332 72.8896 22.1332C71.2247 22.1332 69.8621 21.0487 69.8621 19.4193V17.0945C69.8621 15.4651 71.2247 14.3806 72.8896 14.3806C74.5548 14.3806 75.9171 15.4651 75.9171 17.0945V19.4193ZM72.8896 11.424C71.7893 11.424 70.7518 11.6647 69.845 12.1008V8.11926C69.845 7.61357 69.4259 7.2038 68.9094 7.2038H66.4885V19.1958C66.4885 22.6405 69.3691 25.0898 72.8896 25.0898C76.4103 25.0898 79.2907 22.6405 79.2907 19.1958V17.3327C79.2907 13.8881 76.4103 11.424 72.8896 11.424Z" fill="#6B8CCE" fill-opacity="0.5"/>
<path fill-rule="evenodd" clip-rule="evenodd" d="M142.841 19.4761C142.841 21.0884 141.493 22.1619 139.845 22.1619C138.196 22.1619 136.848 21.0884 136.848 19.4761V17.1749C136.848 15.5626 138.196 14.4892 139.845 14.4892C141.493 14.4892 142.841 15.5626 142.841 17.1749V19.4761ZM139.845 11.5631C138.756 11.5631 137.728 11.8011 136.832 12.2325V8.12229C136.832 7.62203 136.417 7.21643 135.905 7.21643H133.51V19.2548C133.51 22.664 136.36 25.088 139.845 25.088C143.329 25.088 146.179 22.664 146.179 19.2548V17.4106C146.179 14.0016 143.329 11.5631 139.845 11.5631Z" fill="#6B8CCE" fill-opacity="0.5"/>
<path fill-rule="evenodd" clip-rule="evenodd" d="M169.736 25.0266V22.9646C169.736 22.4765 169.331 22.0813 168.833 22.083C168.328 22.0847 167.694 22.0863 167.16 22.0863C165.796 22.0863 165.859 21.4193 165.859 19.69V8.11297C165.859 7.62588 165.456 7.23114 164.959 7.23114H162.501V20.0853C162.501 23.1982 163.322 25.0266 166.756 25.0266C168.083 25.0266 169.045 24.9898 169.736 25.0269V25.0266Z" fill="#6B8CCE" fill-opacity="0.5"/>
<path fill-rule="evenodd" clip-rule="evenodd" d="M105.409 14.4092H98.9145V16.1407C98.9145 16.6612 99.3456 17.0832 99.8774 17.0832H102.962V18.614C102.962 19.7435 102.674 20.577 102.078 21.1644C101.347 21.9033 100.335 22.2936 99.1523 22.2936C98.0865 22.2936 97.0718 21.9326 96.4387 21.328C95.5587 20.484 95.369 19.5675 95.369 16.1654C95.369 12.7827 95.5587 11.8703 96.4384 11.0272C97.0878 10.4072 98.3543 9.93804 99.4042 9.93804C102.955 9.93804 104.147 11.1709 105.036 12.2935H105.153V9.7832C105.153 9.41208 104.972 9.06521 104.675 8.83346C103.188 7.6687 101.706 7.24304 99.1523 7.24304C97.0903 7.24304 95.3271 7.87703 93.9123 9.12727C91.9583 10.8535 91.9585 12.8013 91.959 16.028V16.3026C91.9585 19.5294 91.9583 21.477 93.9123 23.2032C95.3075 24.4363 97.1197 25.0879 99.1523 25.0879C101.287 25.0879 103.167 24.3847 104.587 23.0547L104.588 23.0542C105.855 21.8631 106.372 19.5822 106.372 17.2104V15.3515C106.372 14.8311 105.941 14.4092 105.409 14.4092Z" fill="#6B8CCE" fill-opacity="0.5"/>
<path fill-rule="evenodd" clip-rule="evenodd" d="M115.991 25.0266V22.9646C115.991 22.4765 115.587 22.0813 115.089 22.083C114.584 22.0847 113.951 22.0863 113.415 22.0863C112.052 22.0863 112.115 21.4193 112.115 19.69V8.11297C112.115 7.62588 111.712 7.23114 111.215 7.23114H108.757V20.0853C108.757 23.1982 109.577 25.0266 113.012 25.0266C114.338 25.0266 115.301 24.9898 115.991 25.0269L115.991 25.0266Z" fill="#6B8CCE" fill-opacity="0.5"/>
<path fill-rule="evenodd" clip-rule="evenodd" d="M127.746 19.476C127.746 21.0883 126.398 22.1618 124.75 22.1618C123.102 22.1618 121.754 21.0883 121.754 19.476V17.1749C121.754 15.5626 123.102 14.4891 124.75 14.4891C126.398 14.4891 127.746 15.5626 127.746 17.1749V19.476ZM124.75 11.563C121.266 11.563 118.415 14.0016 118.415 17.4107V19.2547C118.415 22.664 121.266 25.0879 124.75 25.0879C128.235 25.0879 131.085 22.664 131.085 19.2547V17.4107C131.085 14.0016 128.235 11.563 124.75 11.563Z" fill="#6B8CCE" fill-opacity="0.5"/>
<path fill-rule="evenodd" clip-rule="evenodd" d="M156.777 18.9659V22.3595C156.519 22.4086 156.232 22.4476 155.923 22.4755C155.162 22.5454 154.481 22.5582 153.691 22.4878C153.381 22.4604 153.094 22.3831 152.841 22.2598C152.595 22.1401 152.393 21.97 152.227 21.7393C152.069 21.5208 151.988 21.1979 151.988 20.7798C151.988 20.1284 152.225 19.662 152.714 19.3533C153.234 19.0246 154.021 18.8577 155.056 18.8577C155.335 18.8577 155.675 18.8734 156.076 18.9045C156.338 18.925 156.574 18.9455 156.777 18.9659ZM158.574 12.7125C157.578 11.9345 156.123 11.5402 154.247 11.5402C153.551 11.5402 152.817 11.59 152.069 11.6877C151.469 11.7661 150.619 11.8783 150.03 12.0112C149.791 12.0651 149.747 12.2488 149.747 12.4688V14.2231C149.747 14.5357 149.75 14.8201 150.089 14.7394C150.72 14.589 151.944 14.3236 152.277 14.2699C152.802 14.1852 153.375 14.1426 153.978 14.1426C154.918 14.1426 155.634 14.3071 156.107 14.6303C156.551 14.935 156.777 15.5149 156.777 16.3537V16.4553C156.61 16.4402 156.427 16.4257 156.227 16.4126C155.852 16.3879 155.372 16.3754 154.786 16.3754C153.988 16.3754 153.213 16.464 152.487 16.6389C151.748 16.8169 151.085 17.092 150.514 17.457C149.933 17.8294 149.467 18.3019 149.13 18.8628C148.789 19.4275 148.616 20.0891 148.616 20.828C148.616 21.5786 148.764 22.232 149.055 22.7696C149.349 23.3122 149.771 23.7646 150.31 24.1137C150.84 24.4585 151.491 24.7105 152.243 24.8639C152.974 25.0127 153.804 25.0881 154.706 25.0881C155.363 25.0881 160.095 25.0229 160.095 22.8195C160.095 20.2661 160.095 16.4496 160.095 16.4496C160.095 14.7592 159.584 13.5019 158.574 12.7125Z" fill="#6B8CCE" fill-opacity="0.5"/>
<path fill-rule="evenodd" clip-rule="evenodd" d="M10.848 8.45969C10.848 4.90104 9.07626 1.84078 7.72865 0.84423C7.7231 0.841095 7.6255 0.787392 7.63382 0.929696L7.6319 0.934084C7.51999 7.80501 3.93248 9.66728 1.96019 12.1759C-2.59137 17.965 1.64155 24.3121 5.95198 25.4851C8.3638 26.1416 5.39499 24.3238 5.01272 20.4843C4.55034 15.8436 10.848 12.3013 10.848 8.45969Z" fill="#6B8CCE" fill-opacity="0.5"/>
<path fill-rule="evenodd" clip-rule="evenodd" d="M12.9158 10.7992C12.8882 10.7808 12.8488 10.7682 12.8218 10.8121C12.7476 11.677 11.8446 13.5272 10.7002 15.2261C6.81835 20.9887 9.03048 23.7666 10.2743 25.2586C10.9966 26.1247 10.2743 25.2586 12.0796 24.3734C12.221 24.3041 15.602 22.4488 15.9681 18.222C16.3225 14.1288 13.8099 11.5487 12.9158 10.7992Z" fill="#6B8CCE" fill-opacity="0.5"/>
</svg>
