<svg width="40" height="40" viewBox="0 0 40 40" fill="none" xmlns="http://www.w3.org/2000/svg">
<path d="M20 12.8125C18.5784 12.8125 17.1888 13.234 16.0068 14.0238C14.8249 14.8136 13.9036 15.9361 13.3596 17.2495C12.8156 18.5628 12.6733 20.008 12.9506 21.4022C13.2279 22.7964 13.9125 24.0771 14.9177 25.0823C15.9229 26.0875 17.2036 26.7721 18.5978 27.0494C19.992 27.3267 21.4372 27.1844 22.7505 26.6404C24.0639 26.0964 25.1864 25.1751 25.9762 23.9932C26.766 22.8112 27.1875 21.4216 27.1875 20C27.1875 18.0938 26.4302 16.2656 25.0823 14.9177C23.7344 13.5698 21.9062 12.8125 20 12.8125ZM20 25.3125C18.9493 25.3125 17.9222 25.0009 17.0485 24.4172C16.1749 23.8334 15.494 23.0037 15.0919 22.033C14.6898 21.0623 14.5846 19.9941 14.7896 18.9636C14.9946 17.9331 15.5005 16.9865 16.2435 16.2435C16.9865 15.5005 17.9331 14.9946 18.9636 14.7896C19.9941 14.5846 21.0623 14.6898 22.033 15.0919C23.0037 15.494 23.8334 16.1749 24.4172 17.0485C25.0009 17.9222 25.3125 18.9493 25.3125 20C25.3084 21.4077 24.7473 22.7566 23.7519 23.7519C22.7566 24.7473 21.4077 25.3084 20 25.3125ZM26.875 4.6875H13.125C10.8872 4.6875 8.74113 5.57645 7.15879 7.15879C5.57645 8.74113 4.6875 10.8872 4.6875 13.125V26.875C4.6875 29.1128 5.57645 31.2589 7.15879 32.8412C8.74113 34.4236 10.8872 35.3125 13.125 35.3125H26.875C29.1128 35.3125 31.2589 34.4236 32.8412 32.8412C34.4236 31.2589 35.3125 29.1128 35.3125 26.875V13.125C35.3125 10.8872 34.4236 8.74113 32.8412 7.15879C31.2589 5.57645 29.1128 4.6875 26.875 4.6875ZM33.4375 26.875C33.4375 28.6155 32.7461 30.2847 31.5154 31.5154C30.2847 32.7461 28.6155 33.4375 26.875 33.4375H13.125C11.3845 33.4375 9.71532 32.7461 8.48461 31.5154C7.2539 30.2847 6.5625 28.6155 6.5625 26.875V13.125C6.5625 11.3845 7.2539 9.71532 8.48461 8.48461C9.71532 7.2539 11.3845 6.5625 13.125 6.5625H26.875C28.6155 6.5625 30.2847 7.2539 31.5154 8.48461C32.7461 9.71532 33.4375 11.3845 33.4375 13.125V26.875ZM29.6875 11.875C29.6875 12.184 29.5959 12.4861 29.4242 12.7431C29.2525 13 29.0085 13.2003 28.7229 13.3186C28.4374 13.4368 28.1233 13.4678 27.8202 13.4075C27.5171 13.3472 27.2387 13.1984 27.0201 12.9799C26.8016 12.7613 26.6528 12.4829 26.5925 12.1798C26.5322 11.8767 26.5632 11.5626 26.6814 11.2771C26.7997 10.9915 27 10.7475 27.2569 10.5758C27.5139 10.4041 27.816 10.3125 28.125 10.3125C28.5394 10.3125 28.9368 10.4771 29.2299 10.7701C29.5229 11.0632 29.6875 11.4606 29.6875 11.875Z" fill="url(#paint0_linear_250_336)"/>
<defs>
<linearGradient id="paint0_linear_250_336" x1="4.6875" y1="20" x2="35.3125" y2="20" gradientUnits="userSpaceOnUse">
<stop stop-color="#0C3483"/>
<stop offset="1" stop-color="#A2B6DF"/>
<stop offset="1" stop-color="#6B8CCE"/>
</linearGradient>
</defs>
</svg>
