<svg width="72" height="72" viewBox="0 0 72 72" fill="none" xmlns="http://www.w3.org/2000/svg">
<rect x="1" y="1" width="70" height="70" rx="35" stroke="url(#paint0_linear_1402_940)" stroke-width="2"/>
<g clip-path="url(#clip0_1402_940)">
<path d="M34.5521 47.0255C34.4642 47.1108 34.3936 47.2128 34.3451 47.3263C34.2966 47.4398 34.2715 47.562 34.2715 47.6858C34.2715 47.8096 34.2966 47.9318 34.3451 48.0453C34.3936 48.1587 34.4642 48.2608 34.5521 48.3461C34.6151 48.4072 34.6862 48.4588 34.7629 48.4999H15.2212C15.0256 48.4985 14.8413 48.4223 14.7074 48.2925C14.5743 48.1634 14.5017 47.9921 14.5 47.8163C14.5005 47.7303 14.5186 47.6448 14.5538 47.5648C14.5892 47.484 14.6415 47.4099 14.7082 47.3473L14.7141 47.3417L14.7198 47.336C14.7845 47.2713 14.8627 47.219 14.9503 47.1829C15.0376 47.1468 15.1319 47.1278 15.2277 47.1274H19.3284H20.3409L19.7254 46.3234C19.6936 46.282 19.678 46.2337 19.6782 46.1859V46.1834V24.7615C19.6788 24.697 19.7054 24.6322 19.7574 24.582C19.8102 24.5311 19.8848 24.4999 19.9656 24.4999H52.8184C52.8985 24.4999 52.9723 24.5309 53.0244 24.5814C53.076 24.6314 53.1021 24.696 53.1021 24.7599V46.1905V46.1915C53.1022 46.2423 53.0859 46.2934 53.0533 46.3375L52.465 47.1345H53.4556H57.7695C57.9652 47.1345 58.1499 47.21 58.2837 47.3398C58.4171 47.4691 58.489 47.6411 58.489 47.8172C58.489 47.9932 58.417 48.1653 58.2837 48.2945C58.1499 48.4243 57.9652 48.4999 57.7695 48.4999H38.2224C38.2992 48.4588 38.3702 48.4072 38.4332 48.3461C38.5212 48.2608 38.5918 48.1587 38.6402 48.0453C38.6887 47.9318 38.7139 47.8096 38.7139 47.6858C38.7139 47.562 38.6887 47.4398 38.6402 47.3263C38.5918 47.2128 38.5212 47.1108 38.4333 47.0255C38.3453 46.9402 38.2418 46.8734 38.129 46.8281L38.129 46.8281C38.0161 46.7827 37.8957 46.7596 37.7744 46.7596H35.2109C35.0897 46.7596 34.9692 46.7827 34.8564 46.8281L34.8564 46.8281C34.7435 46.8734 34.64 46.9402 34.5521 47.0255ZM34.5521 47.0255L34.9002 47.3844L34.5521 47.0255C34.5521 47.0255 34.5521 47.0255 34.5521 47.0255ZM19.1782 46.1274V24.7599V46.1274ZM19.1782 46.1274H19.3284V46.1834V46.1842V46.6274L19.1782 46.1274ZM39.1548 28.428H39.1551C40.2413 28.4279 41.3064 28.7124 42.2377 29.2505C43.169 29.7884 43.931 30.5592 44.445 31.4798C44.9589 32.4003 45.2062 33.4371 45.162 34.4809C45.1178 35.5247 44.7835 36.5388 44.1931 37.4158L43.9696 37.7479L44.2447 38.0387L46.7071 40.641L45.5252 41.6959L43.1416 39.1537L42.8556 38.8487L42.5048 39.0762C41.4623 39.7522 40.2264 40.0966 38.9699 40.0595C37.7134 40.0223 36.5018 39.6056 35.5041 38.8696L35.1622 38.6174L34.8581 38.914L33.3216 40.4129L29.895 37.1348L29.5528 36.8075L29.2073 37.1314L26.9038 39.2914L26.2995 38.7053L29.5668 35.6266C29.7005 35.756 29.8341 35.8853 29.9677 36.0145C30.9645 36.979 31.9581 37.9403 32.968 38.9084L33.3171 39.243L33.6632 38.9052L34.2491 38.3334L34.5645 38.0257L34.2988 37.6741C33.6438 36.8073 33.2504 35.783 33.1604 34.715C33.0705 33.647 33.2873 32.5751 33.788 31.6179C34.2887 30.6605 35.0543 29.8543 36.0018 29.2904C36.9493 28.7264 38.0407 28.4275 39.1548 28.428ZM34.4815 37.2659L34.8149 37.7746L35.2495 37.349L37.8496 34.8025L38.2161 34.4435L37.8479 34.0863L37.1731 33.432L39.8086 33.4083V35.9844L39.1662 35.3614L38.8162 35.0219L38.468 35.3633L35.8313 37.9489L35.399 38.3729L35.8971 38.7172C37.037 39.5052 38.4376 39.8489 39.8231 39.6832C41.2087 39.5176 42.4833 38.854 43.3938 37.8189C44.3047 36.7833 44.7844 35.4514 44.7343 34.0857C44.6841 32.72 44.108 31.4252 43.1241 30.4558L43.1242 30.4557L43.118 30.4498C42.1365 29.5152 40.8375 28.9656 39.4692 28.9019C38.101 28.8383 36.7544 29.2647 35.6861 30.1032C34.6174 30.9421 33.9009 32.1357 33.6778 33.4586C33.4547 34.7818 33.7417 36.1372 34.4815 37.2659ZM20.5222 24.6932H20.0222V25.1932V45.9774V46.4774H20.5222H52.3826H52.8826V45.9774V25.1932V24.6932H52.3826H20.5222Z" fill="white"/>
<path d="M34.5521 47.0255C34.4642 47.1108 34.3936 47.2128 34.3451 47.3263C34.2966 47.4398 34.2715 47.562 34.2715 47.6858C34.2715 47.8096 34.2966 47.9318 34.3451 48.0453C34.3936 48.1587 34.4642 48.2608 34.5521 48.3461C34.6151 48.4072 34.6862 48.4588 34.7629 48.4999H15.2212C15.0256 48.4985 14.8413 48.4223 14.7074 48.2925C14.5743 48.1634 14.5017 47.9921 14.5 47.8163C14.5005 47.7303 14.5186 47.6448 14.5538 47.5648C14.5892 47.484 14.6415 47.4099 14.7082 47.3473L14.7141 47.3417L14.7198 47.336C14.7845 47.2713 14.8627 47.219 14.9503 47.1829C15.0376 47.1468 15.1319 47.1278 15.2277 47.1274H19.3284H20.3409L19.7254 46.3234C19.6936 46.282 19.678 46.2337 19.6782 46.1859V46.1834V24.7615C19.6788 24.697 19.7054 24.6322 19.7574 24.582C19.8102 24.5311 19.8848 24.4999 19.9656 24.4999H52.8184C52.8985 24.4999 52.9723 24.5309 53.0244 24.5814C53.076 24.6314 53.1021 24.696 53.1021 24.7599V46.1905V46.1915C53.1022 46.2423 53.0859 46.2934 53.0533 46.3375L52.465 47.1345H53.4556H57.7695C57.9652 47.1345 58.1499 47.21 58.2837 47.3398C58.4171 47.4691 58.489 47.6411 58.489 47.8172C58.489 47.9932 58.417 48.1653 58.2837 48.2945C58.1499 48.4243 57.9652 48.4999 57.7695 48.4999H38.2224C38.2992 48.4588 38.3702 48.4072 38.4332 48.3461C38.5212 48.2608 38.5918 48.1587 38.6402 48.0453C38.6887 47.9318 38.7139 47.8096 38.7139 47.6858C38.7139 47.562 38.6887 47.4398 38.6402 47.3263C38.5918 47.2128 38.5212 47.1108 38.4333 47.0255C38.3453 46.9402 38.2418 46.8734 38.129 46.8281L38.129 46.8281C38.0161 46.7827 37.8957 46.7596 37.7744 46.7596H35.2109C35.0897 46.7596 34.9692 46.7827 34.8564 46.8281L34.8564 46.8281C34.7435 46.8734 34.64 46.9402 34.5521 47.0255ZM34.5521 47.0255L34.9002 47.3844L34.5521 47.0255C34.5521 47.0255 34.5521 47.0255 34.5521 47.0255ZM19.1782 46.1274V24.7599V46.1274ZM19.1782 46.1274H19.3284V46.1834V46.1842V46.6274L19.1782 46.1274ZM39.1548 28.428H39.1551C40.2413 28.4279 41.3064 28.7124 42.2377 29.2505C43.169 29.7884 43.931 30.5592 44.445 31.4798C44.9589 32.4003 45.2062 33.4371 45.162 34.4809C45.1178 35.5247 44.7835 36.5388 44.1931 37.4158L43.9696 37.7479L44.2447 38.0387L46.7071 40.641L45.5252 41.6959L43.1416 39.1537L42.8556 38.8487L42.5048 39.0762C41.4623 39.7522 40.2264 40.0966 38.9699 40.0595C37.7134 40.0223 36.5018 39.6056 35.5041 38.8696L35.1622 38.6174L34.8581 38.914L33.3216 40.4129L29.895 37.1348L29.5528 36.8075L29.2073 37.1314L26.9038 39.2914L26.2995 38.7053L29.5668 35.6266C29.7005 35.756 29.8341 35.8853 29.9677 36.0145C30.9645 36.979 31.9581 37.9403 32.968 38.9084L33.3171 39.243L33.6632 38.9052L34.2491 38.3334L34.5645 38.0257L34.2988 37.6741C33.6438 36.8073 33.2504 35.783 33.1604 34.715C33.0705 33.647 33.2873 32.5751 33.788 31.6179C34.2887 30.6605 35.0543 29.8543 36.0018 29.2904C36.9493 28.7264 38.0407 28.4275 39.1548 28.428ZM34.4815 37.2659L34.8149 37.7746L35.2495 37.349L37.8496 34.8025L38.2161 34.4435L37.8479 34.0863L37.1731 33.432L39.8086 33.4083V35.9844L39.1662 35.3614L38.8162 35.0219L38.468 35.3633L35.8313 37.9489L35.399 38.3729L35.8971 38.7172C37.037 39.5052 38.4376 39.8489 39.8231 39.6832C41.2087 39.5176 42.4833 38.854 43.3938 37.8189C44.3047 36.7833 44.7844 35.4514 44.7343 34.0857C44.6841 32.72 44.108 31.4252 43.1241 30.4558L43.1242 30.4557L43.118 30.4498C42.1365 29.5152 40.8375 28.9656 39.4692 28.9019C38.101 28.8383 36.7544 29.2647 35.6861 30.1032C34.6174 30.9421 33.9009 32.1357 33.6778 33.4586C33.4547 34.7818 33.7417 36.1372 34.4815 37.2659ZM20.5222 24.6932H20.0222V25.1932V45.9774V46.4774H20.5222H52.3826H52.8826V45.9774V25.1932V24.6932H52.3826H20.5222Z" fill="url(#paint1_linear_1402_940)"/>
<path d="M34.5521 47.0255C34.4642 47.1108 34.3936 47.2128 34.3451 47.3263C34.2966 47.4398 34.2715 47.562 34.2715 47.6858C34.2715 47.8096 34.2966 47.9318 34.3451 48.0453C34.3936 48.1587 34.4642 48.2608 34.5521 48.3461C34.6151 48.4072 34.6862 48.4588 34.7629 48.4999H15.2212C15.0256 48.4985 14.8413 48.4223 14.7074 48.2925C14.5743 48.1634 14.5017 47.9921 14.5 47.8163C14.5005 47.7303 14.5186 47.6448 14.5538 47.5648C14.5892 47.484 14.6415 47.4099 14.7082 47.3473L14.7141 47.3417L14.7198 47.336C14.7845 47.2713 14.8627 47.219 14.9503 47.1829C15.0376 47.1468 15.1319 47.1278 15.2277 47.1274H19.3284H20.3409L19.7254 46.3234C19.6936 46.282 19.678 46.2337 19.6782 46.1859V46.1834V24.7615C19.6788 24.697 19.7054 24.6322 19.7574 24.582C19.8102 24.5311 19.8848 24.4999 19.9656 24.4999H52.8184C52.8985 24.4999 52.9723 24.5309 53.0244 24.5814C53.076 24.6314 53.1021 24.696 53.1021 24.7599V46.1905V46.1915C53.1022 46.2423 53.0859 46.2934 53.0533 46.3375L52.465 47.1345H53.4556H57.7695C57.9652 47.1345 58.1499 47.21 58.2837 47.3398C58.4171 47.4691 58.489 47.6411 58.489 47.8172C58.489 47.9932 58.417 48.1653 58.2837 48.2945C58.1499 48.4243 57.9652 48.4999 57.7695 48.4999H38.2224C38.2992 48.4588 38.3702 48.4072 38.4332 48.3461C38.5212 48.2608 38.5918 48.1587 38.6402 48.0453C38.6887 47.9318 38.7139 47.8096 38.7139 47.6858C38.7139 47.562 38.6887 47.4398 38.6402 47.3263C38.5918 47.2128 38.5212 47.1108 38.4333 47.0255C38.3453 46.9402 38.2418 46.8734 38.129 46.8281L38.129 46.8281C38.0161 46.7827 37.8957 46.7596 37.7744 46.7596H35.2109C35.0897 46.7596 34.9692 46.7827 34.8564 46.8281L34.8564 46.8281C34.7435 46.8734 34.64 46.9402 34.5521 47.0255ZM34.5521 47.0255L34.9002 47.3844L34.5521 47.0255C34.5521 47.0255 34.5521 47.0255 34.5521 47.0255ZM19.1782 46.1274V24.7599V46.1274ZM19.1782 46.1274H19.3284V46.1834V46.1842V46.6274L19.1782 46.1274ZM39.1548 28.428H39.1551C40.2413 28.4279 41.3064 28.7124 42.2377 29.2505C43.169 29.7884 43.931 30.5592 44.445 31.4798C44.9589 32.4003 45.2062 33.4371 45.162 34.4809C45.1178 35.5247 44.7835 36.5388 44.1931 37.4158L43.9696 37.7479L44.2447 38.0387L46.7071 40.641L45.5252 41.6959L43.1416 39.1537L42.8556 38.8487L42.5048 39.0762C41.4623 39.7522 40.2264 40.0966 38.9699 40.0595C37.7134 40.0223 36.5018 39.6056 35.5041 38.8696L35.1622 38.6174L34.8581 38.914L33.3216 40.4129L29.895 37.1348L29.5528 36.8075L29.2073 37.1314L26.9038 39.2914L26.2995 38.7053L29.5668 35.6266C29.7005 35.756 29.8341 35.8853 29.9677 36.0145C30.9645 36.979 31.9581 37.9403 32.968 38.9084L33.3171 39.243L33.6632 38.9052L34.2491 38.3334L34.5645 38.0257L34.2988 37.6741C33.6438 36.8073 33.2504 35.783 33.1604 34.715C33.0705 33.647 33.2873 32.5751 33.788 31.6179C34.2887 30.6605 35.0543 29.8543 36.0018 29.2904C36.9493 28.7264 38.0407 28.4275 39.1548 28.428ZM34.4815 37.2659L34.8149 37.7746L35.2495 37.349L37.8496 34.8025L38.2161 34.4435L37.8479 34.0863L37.1731 33.432L39.8086 33.4083V35.9844L39.1662 35.3614L38.8162 35.0219L38.468 35.3633L35.8313 37.9489L35.399 38.3729L35.8971 38.7172C37.037 39.5052 38.4376 39.8489 39.8231 39.6832C41.2087 39.5176 42.4833 38.854 43.3938 37.8189C44.3047 36.7833 44.7844 35.4514 44.7343 34.0857C44.6841 32.72 44.108 31.4252 43.1241 30.4558L43.1242 30.4557L43.118 30.4498C42.1365 29.5152 40.8375 28.9656 39.4692 28.9019C38.101 28.8383 36.7544 29.2647 35.6861 30.1032C34.6174 30.9421 33.9009 32.1357 33.6778 33.4586C33.4547 34.7818 33.7417 36.1372 34.4815 37.2659ZM20.5222 24.6932H20.0222V25.1932V45.9774V46.4774H20.5222H52.3826H52.8826V45.9774V25.1932V24.6932H52.3826H20.5222Z" stroke="url(#paint2_linear_1402_940)"/>
</g>
<defs>
<linearGradient id="paint0_linear_1402_940" x1="36" y1="72" x2="36" y2="-6" gradientUnits="userSpaceOnUse">
<stop stop-color="#0C3483"/>
<stop offset="1" stop-color="#A2B6DF"/>
<stop offset="1" stop-color="#6B8CCE"/>
</linearGradient>
<linearGradient id="paint1_linear_1402_940" x1="36.4945" y1="48.9999" x2="36.4945" y2="21.9165" gradientUnits="userSpaceOnUse">
<stop stop-color="#0C3483"/>
<stop offset="1" stop-color="#A2B6DF"/>
<stop offset="1" stop-color="#6B8CCE"/>
</linearGradient>
<linearGradient id="paint2_linear_1402_940" x1="36.4945" y1="48.9999" x2="36.4945" y2="21.9165" gradientUnits="userSpaceOnUse">
<stop stop-color="#0C3483"/>
<stop offset="1" stop-color="#A2B6DF"/>
<stop offset="1" stop-color="#6B8CCE"/>
</linearGradient>
<clipPath id="clip0_1402_940">
<rect width="45" height="25" fill="white" transform="translate(14 23.9999)"/>
</clipPath>
</defs>
</svg>
