<svg width="221" height="32" viewBox="0 0 221 32" fill="none" xmlns="http://www.w3.org/2000/svg">
<path d="M112.692 23.7484C111.338 23.7484 110.256 22.6999 110.256 21.3893V5.34738C110.256 4.03677 111.338 2.98828 112.692 2.98828C114.045 2.98828 115.127 4.03677 115.127 5.34738V21.3893C115.127 22.6999 114.045 23.7484 112.692 23.7484Z" fill="url(#paint0_linear_382_4718)"/>
<path d="M171.961 6.60547C170.608 6.60547 169.525 7.65396 169.525 8.96457V16.9331H156.86V8.96457C156.86 7.65396 155.777 6.60547 154.424 6.60547C153.071 6.60547 151.988 7.65396 151.988 8.96457V29.4101C151.988 30.7207 153.071 31.7692 154.424 31.7692C155.777 31.7692 156.86 30.7207 156.86 29.4101V21.5989H169.525V29.3577C169.525 30.6683 170.608 31.7168 171.961 31.7168C173.314 31.7168 174.397 30.6683 174.397 29.3577V8.91214C174.397 7.65396 173.314 6.60547 171.961 6.60547Z" fill="white"/>
<path d="M138.456 17.0903C138.078 16.9854 137.753 16.933 137.536 16.8806C135.101 16.199 134.126 15.5175 134.126 14.6263C134.126 13.5254 134.559 11.6905 137.482 11.6905C140.134 11.6905 141.758 13.106 141.866 13.2109C142.841 14.1021 144.356 14.1021 145.276 13.1584C146.251 12.2148 146.197 10.7469 145.276 9.80327C144.952 9.48872 142.191 6.91992 137.482 6.91992C132.665 6.91992 129.255 10.0654 129.255 14.5739C129.255 19.3969 134.451 20.8648 136.183 21.3891C136.562 21.4939 136.941 21.5988 137.428 21.7036C140.784 22.49 141.921 23.1715 141.921 24.4297C141.921 25.7403 140.026 26.8936 138.511 26.8936C134.451 26.8936 132.773 24.3248 132.719 24.22C132.069 23.1191 130.554 22.6997 129.363 23.3812C128.226 24.0103 127.793 25.4782 128.497 26.6315C128.605 26.8412 131.582 31.6118 138.511 31.6118C142.408 31.6118 146.792 28.6761 146.792 24.4297C146.738 18.9251 140.946 17.6145 138.456 17.0903Z" fill="white"/>
<path d="M121.731 0C120.378 0 119.295 1.04849 119.295 2.3591V20.4979C119.295 24.0104 116.318 26.8937 112.692 26.8937C109.065 26.8937 106.088 24.0104 106.088 20.4979V9.06942C106.088 7.75881 105.006 6.71033 103.653 6.71033C102.299 6.71033 101.217 7.75881 101.217 9.06942V20.4455C101.217 26.5792 106.359 31.5595 112.692 31.5595C119.024 31.5595 124.167 26.5792 124.167 20.4455V2.3591C124.167 1.04849 123.084 0 121.731 0Z" fill="white"/>
<path d="M86.9275 7.18237H86.8734L79.7287 7.2348C78.3755 7.2348 77.293 8.28329 77.293 9.5939V29.2531C77.293 30.5637 78.3755 31.6122 79.7287 31.6122C81.0818 31.6122 82.1644 30.5637 82.1644 29.2531V25.4261H86.9275C92.1237 25.4261 96.3456 21.337 96.3456 16.3042C96.3456 13.8403 95.3713 11.586 93.5851 9.85602C91.7448 8.12601 89.4174 7.18237 86.9275 7.18237ZM86.9275 20.6554H82.1644V11.953L86.8734 11.9006C86.8734 11.9006 86.8734 11.9006 86.9275 11.9006C88.1183 11.9006 89.255 12.3724 90.121 13.1588C90.987 13.9975 91.4742 15.0985 91.4742 16.2518C91.4201 18.7157 89.4174 20.6554 86.9275 20.6554Z" fill="white"/>
<path d="M72.5836 7.39201C71.5011 6.60564 69.9855 6.76291 69.1736 7.8114L61.65 17.1954L54.1264 7.65413C53.3145 6.60564 51.7989 6.39594 50.7164 7.23473C49.6339 8.0211 49.4174 9.48898 50.2834 10.5375L59.2143 21.8611V29.2006C59.2143 30.5112 60.2969 31.5597 61.65 31.5597C63.0032 31.5597 64.0857 30.5112 64.0857 29.2006V21.8611L73.0166 10.6947C73.8285 9.69868 73.612 8.17837 72.5836 7.39201Z" fill="white"/>
<path d="M47.3072 16.0942C47.3072 11.2187 42.9771 6.91992 37.9974 6.91992H30.4738C29.1206 6.91992 28.0381 7.96841 28.0381 9.27902V29.2003C28.0381 30.5109 29.1206 31.5594 30.4738 31.5594C31.827 31.5594 32.9095 30.5109 32.9095 29.2003V25.1112H37.6726L42.3275 30.6682C42.8147 31.2449 43.5183 31.5594 44.222 31.5594C44.7633 31.5594 45.3045 31.4021 45.7375 31.0352C46.7659 30.1964 46.9283 28.7285 46.1164 27.7324L42.7606 23.6957C45.4128 22.0182 47.3072 19.1348 47.3072 16.0942ZM32.9095 11.6381H37.9974C40.2166 11.6381 42.4358 13.8399 42.4358 16.0942C42.4358 18.1912 40.1625 20.393 37.9974 20.393H32.9095V11.6381Z" fill="white"/>
<path d="M18.4031 24.6919C18.4031 24.6919 15.9674 26.9462 12.4492 26.9462C9.25568 26.9462 4.87141 24.0628 4.87141 19.3446C4.87141 14.574 9.03917 11.8479 12.0161 11.6382C15.8591 11.4285 18.1325 13.7352 18.2948 13.8401C19.215 14.7837 20.7305 14.8886 21.7048 13.9973C22.7332 13.1585 22.7874 11.6382 21.9213 10.6422C21.759 10.4849 18.0783 6.50064 11.7455 6.86761C6.11632 7.23459 0 12.0576 0 19.3446C0 26.6316 6.54934 31.7168 12.395 31.7168C18.0242 31.7168 21.7048 28.2044 21.8131 28.0471C22.7332 27.1034 22.7332 25.6356 21.759 24.7443C20.8929 23.7483 19.3233 23.7483 18.4031 24.6919Z" fill="white"/>
<path d="M216.724 6.86755H191.339C189.173 6.86755 187.441 8.54513 187.441 10.6421V24.0628C187.441 26.1597 189.173 27.8373 191.339 27.8373H196.21V29.4101C196.21 30.7207 197.292 31.7692 198.646 31.7692C199.999 31.7692 201.081 30.7207 201.081 29.4101V27.8373H206.765V29.4101C206.765 30.7207 207.847 31.7692 209.2 31.7692C210.554 31.7692 211.636 30.7207 211.636 29.4101V27.8373H216.724C218.889 27.8373 220.621 26.1597 220.621 24.0628V10.6421C220.621 8.54513 218.889 6.86755 216.724 6.86755ZM215.75 23.1191H192.313V11.5858H215.75V23.1191Z" fill="white"/>
<path d="M199.783 18.3485H197.184C196.156 18.3485 195.29 17.5098 195.29 16.5137C195.29 15.5176 196.156 14.6788 197.184 14.6788H199.783C200.811 14.6788 201.677 15.5176 201.677 16.5137C201.677 17.5098 200.811 18.3485 199.783 18.3485Z" fill="url(#paint1_linear_382_4718)"/>
<path d="M210.499 18.3485H207.901C206.873 18.3485 206.007 17.5098 206.007 16.5137C206.007 15.5176 206.873 14.6788 207.901 14.6788H210.499C211.528 14.6788 212.394 15.5176 212.394 16.5137C212.394 17.5098 211.582 18.3485 210.499 18.3485Z" fill="url(#paint2_linear_382_4718)"/>
<defs>
<linearGradient id="paint0_linear_382_4718" x1="112.817" y1="23.8268" x2="112.817" y2="2.97834" gradientUnits="userSpaceOnUse">
<stop stop-color="#0C3483"/>
<stop offset="1" stop-color="#A2B6DF"/>
<stop offset="1" stop-color="#6B8CCE"/>
</linearGradient>
<linearGradient id="paint1_linear_382_4718" x1="198.648" y1="18.3624" x2="198.648" y2="14.6771" gradientUnits="userSpaceOnUse">
<stop stop-color="#0C3483"/>
<stop offset="1" stop-color="#A2B6DF"/>
<stop offset="1" stop-color="#6B8CCE"/>
</linearGradient>
<linearGradient id="paint2_linear_382_4718" x1="209.365" y1="18.3624" x2="209.365" y2="14.6771" gradientUnits="userSpaceOnUse">
<stop stop-color="#0C3483"/>
<stop offset="1" stop-color="#A2B6DF"/>
<stop offset="1" stop-color="#6B8CCE"/>
</linearGradient>
</defs>
</svg>
