<svg width="72" height="72" viewBox="0 0 72 72" fill="none" xmlns="http://www.w3.org/2000/svg">
<rect x="1" y="1" width="70" height="70" rx="35" stroke="url(#paint0_linear_1402_948)" stroke-width="2"/>
<g clip-path="url(#clip0_1402_948)">
<path fill-rule="evenodd" clip-rule="evenodd" d="M15.5976 28.6556H18.2027V28.0697C18.2027 27.286 18.3649 26.5389 18.6552 25.8578C18.9605 25.151 19.4016 24.5101 19.9558 23.9755C20.5063 23.4408 21.1661 23.0087 21.8937 22.712C22.5949 22.4264 23.364 22.2689 24.1708 22.2689H34.5311V22.2177V19.5553C34.3614 19.4967 34.2031 19.4198 34.0485 19.3356C33.8336 19.2111 33.6338 19.0609 33.4604 18.8925C33.1889 18.6288 32.9703 18.3138 32.8195 17.9623C32.6762 17.6254 32.597 17.2518 32.597 16.8673C32.597 16.4791 32.6762 16.1093 32.8195 15.7723C32.9703 15.4208 33.1889 15.1022 33.4604 14.8385C33.7318 14.5748 34.056 14.3624 34.418 14.2159C34.7648 14.0731 35.1494 13.9999 35.5452 13.9999C35.9411 13.9999 36.3257 14.0768 36.6725 14.2159C37.0344 14.3624 37.3624 14.5748 37.6339 14.8385C37.9053 15.1022 38.124 15.4171 38.2748 15.7723C38.4181 16.1093 38.4972 16.4828 38.4972 16.8673C38.4972 17.2555 38.4181 17.6254 38.2748 17.9623C38.124 18.3138 37.9053 18.6324 37.6339 18.8925L37.6188 18.9071C37.4454 19.0719 37.2531 19.2184 37.042 19.3392C36.8874 19.4271 36.7253 19.504 36.5594 19.559V22.2213V22.2726H46.9197C47.7265 22.2726 48.4956 22.4301 49.1968 22.7157C49.9282 23.0123 50.5842 23.4408 51.1346 23.9791C51.6851 24.5138 52.1299 25.1547 52.4353 25.8615C52.7294 26.5463 52.8877 27.2897 52.8877 28.0734V28.6593H55.3986C55.7455 28.6593 56.0848 28.7252 56.3902 28.8497C56.7106 28.9779 56.9934 29.1647 57.2309 29.399L57.246 29.4137C57.4797 29.6444 57.6682 29.9154 57.7964 30.2194C57.9246 30.5197 57.9925 30.8419 57.9925 31.1825V37.9135C57.9925 38.2504 57.9246 38.58 57.7964 38.8766C57.6645 39.1842 57.4722 39.4625 57.2309 39.6932C56.7634 40.1473 56.1112 40.433 55.3949 40.433H52.8802C52.8689 41.1837 52.7068 41.9052 52.424 42.5643C52.1186 43.2748 51.6775 43.912 51.1233 44.4467C50.5729 44.9813 49.9131 45.4135 49.1855 45.7101C48.4805 45.9957 47.7151 46.1495 46.9083 46.1495H42.9196V55.8688H49.2081C49.242 55.8175 49.276 55.7626 49.3137 55.7113C49.3891 55.6051 49.472 55.5099 49.5625 55.4183C49.7585 55.2279 49.9961 55.0704 50.2637 54.9642C50.5201 54.8617 50.7991 54.8068 51.0894 54.8068C51.3759 54.8068 51.6625 54.8617 51.915 54.9642C52.1827 55.0704 52.4165 55.2279 52.6163 55.4183C52.8123 55.6088 52.9744 55.8395 53.0838 56.0995C53.1893 56.3485 53.2459 56.6195 53.2459 56.9015C53.2459 57.1835 53.1856 57.4508 53.0838 57.7035C52.9744 57.9635 52.8123 58.1942 52.6163 58.3846C52.4202 58.5751 52.1827 58.7325 51.915 58.8387C51.6587 58.9413 51.3797 58.9962 51.0894 58.9962C50.8066 58.9962 50.5352 58.945 50.2788 58.8424L50.2637 58.8387C49.9961 58.7325 49.7623 58.5751 49.5625 58.3846C49.4419 58.2675 49.3325 58.1283 49.242 57.9855C49.193 57.9049 49.144 57.817 49.1101 57.7291H41.9582C41.6905 57.7291 41.453 57.6229 41.2758 57.4545C41.0948 57.2824 40.9893 57.048 40.9893 56.788V46.1495H36.3106V55.0228C36.3822 55.0595 36.4538 55.0961 36.5217 55.14C36.6499 55.2169 36.7705 55.3158 36.8761 55.4147C37.0759 55.6088 37.2342 55.8358 37.3436 56.0958C37.4491 56.3449 37.5057 56.6158 37.5057 56.8978C37.5057 57.1725 37.4529 57.4362 37.3474 57.6852L37.3436 57.6998C37.2342 57.9598 37.0721 58.1869 36.8761 58.381C36.68 58.5714 36.4425 58.7289 36.1749 58.8351C35.9185 58.9376 35.6395 58.9926 35.3492 58.9926C35.0589 58.9926 34.7799 58.934 34.5235 58.8351C34.2559 58.7289 34.0183 58.5714 33.8223 58.381C33.6263 58.1906 33.4641 57.9598 33.3548 57.6998C33.253 57.4508 33.1927 57.1798 33.1927 56.8978C33.1927 56.6232 33.2455 56.3595 33.351 56.1105L33.3548 56.0958C33.4641 55.8358 33.6263 55.6088 33.8223 55.4147C33.9241 55.3121 34.041 55.2242 34.1654 55.1473L34.1805 55.1364C34.2483 55.0997 34.32 55.0631 34.3916 55.0265V46.1495H28.1483V51.0458C28.1483 51.3058 28.039 51.5365 27.8655 51.705C27.6883 51.8771 27.4508 51.9796 27.1831 51.9796H22.757C22.7231 52.0455 22.6854 52.1041 22.6439 52.17C22.5685 52.2799 22.4818 52.3861 22.38 52.4813L22.3612 52.496C22.1651 52.6864 21.9276 52.8439 21.6599 52.9501C21.4036 53.0526 21.1246 53.1075 20.8343 53.1075C20.5515 53.1075 20.2801 53.0526 20.0237 52.9537L20.0086 52.9501C19.741 52.8439 19.5072 52.6864 19.3074 52.496C19.1113 52.3055 18.9492 52.0748 18.8399 51.8148C18.7343 51.5658 18.6778 51.2948 18.6778 51.0128C18.6778 50.7345 18.7381 50.4598 18.8399 50.2072C18.9492 49.9471 19.1113 49.7164 19.3074 49.526C19.511 49.3392 19.756 49.1818 20.0237 49.0756C20.2801 48.973 20.5591 48.9181 20.8494 48.9181C21.1434 48.9181 21.4224 48.9767 21.675 49.0756C21.9314 49.1818 22.1651 49.3319 22.3574 49.5223L22.3725 49.5333C22.4818 49.6395 22.5836 49.7604 22.6666 49.8886C22.708 49.9581 22.7533 50.0314 22.791 50.1119H26.2255V46.1495H24.1746C23.3678 46.1495 22.5987 45.9921 21.8975 45.7101C21.1661 45.4135 20.5101 44.985 19.9596 44.4467C19.4054 43.912 18.9605 43.2711 18.6552 42.5643C18.3724 41.9052 18.2141 41.1837 18.2027 40.433H15.5976C15.2508 40.433 14.9114 40.3671 14.6061 40.2426C14.2856 40.1144 14.0028 39.9276 13.7653 39.6932L13.7503 39.6786C13.5165 39.4479 13.328 39.1769 13.1998 38.8729C13.0679 38.5763 13 38.2467 13 37.9098V31.1788C13 30.8419 13.0679 30.5123 13.1998 30.2157C13.3318 29.9081 13.524 29.6298 13.7653 29.399C14.0028 29.1683 14.2894 28.9779 14.6061 28.8497C14.9114 28.7252 15.247 28.6556 15.5976 28.6556ZM30.2143 39.4845C30.1615 39.4442 30.1201 39.4039 30.0786 39.3527C29.9579 39.2098 29.8939 39.045 29.8901 38.8803C29.8863 38.7118 29.9429 38.547 30.056 38.4005C30.0974 38.3492 30.1389 38.3053 30.1955 38.2614C30.3877 38.1075 30.6403 38.027 30.8892 38.0233C31.138 38.0197 31.3868 38.0892 31.5866 38.2357C32.269 38.7448 32.9401 39.1146 33.6074 39.36C34.2672 39.6017 34.9194 39.7152 35.5641 39.7079C36.2126 39.7006 36.8685 39.5687 37.5396 39.3234C38.2182 39.0743 38.8969 38.7008 39.5906 38.2211C39.7942 38.0782 40.0468 38.016 40.2956 38.027C40.5444 38.038 40.7932 38.1222 40.9817 38.2833C41.0307 38.3273 41.0722 38.3712 41.1137 38.4261C41.223 38.5763 41.2758 38.7448 41.2645 38.9132C41.2532 39.0817 41.1853 39.2428 41.0609 39.382C41.0157 39.4296 40.9667 39.4735 40.9063 39.5138C40.0392 40.1217 39.1683 40.5831 38.2823 40.9017C37.3964 41.2167 36.4991 41.3851 35.5905 41.3961C34.6781 41.4071 33.7771 41.257 32.8798 40.942C31.99 40.6307 31.1041 40.1473 30.2332 39.4991L30.2143 39.4845ZM27.9334 28.6044C28.1521 28.6044 28.3745 28.6263 28.5819 28.6666C28.793 28.7106 29.0041 28.7692 29.2039 28.8497C29.4075 28.9303 29.6036 29.0328 29.7807 29.15C29.9579 29.2636 30.1201 29.3917 30.2671 29.5345L30.2897 29.5529C30.4443 29.703 30.5838 29.8641 30.7044 30.0436L30.712 30.0546C30.8288 30.2267 30.9306 30.4098 31.0136 30.6075C31.0965 30.8016 31.1606 31.0067 31.2021 31.2118C31.2435 31.4169 31.2699 31.6293 31.2699 31.8417C31.2699 32.0541 31.2473 32.2701 31.2021 32.4716C31.1606 32.6766 31.0965 32.8781 31.0136 33.0795C30.9306 33.2772 30.8251 33.4677 30.7044 33.6398C30.3387 34.1744 29.8147 34.5883 29.2039 34.83C29.0041 34.9105 28.793 34.9728 28.5781 35.0167C28.367 35.057 28.1483 35.0753 27.9296 35.0753C27.711 35.0753 27.4885 35.0533 27.2812 35.0167C27.07 34.9728 26.8589 34.9142 26.6553 34.83C26.4517 34.7494 26.2557 34.6469 26.0747 34.5297C25.8862 34.4088 25.7203 34.2733 25.5695 34.1268C25.415 33.9767 25.2755 33.8156 25.1548 33.6361L25.1473 33.6251C25.0304 33.453 24.9286 33.2699 24.8457 33.0721C24.7627 32.8781 24.6986 32.673 24.6534 32.4679C24.6119 32.2628 24.5931 32.0504 24.5931 31.838C24.5931 31.6256 24.6157 31.4095 24.6534 31.2081C24.6986 31.0031 24.759 30.798 24.8457 30.6039C24.9286 30.4061 25.0342 30.2157 25.1548 30.0436C25.2792 29.8605 25.4187 29.6993 25.5695 29.5529C25.7241 29.4027 25.89 29.2672 26.0747 29.15L26.086 29.1427C26.2632 29.0292 26.4517 28.9303 26.6553 28.8497C26.8551 28.7692 27.0663 28.7069 27.2774 28.6666C27.4923 28.6263 27.711 28.6044 27.9334 28.6044ZM43.1609 28.6044C43.3795 28.6044 43.602 28.6263 43.8093 28.6666C44.0204 28.7106 44.2316 28.7692 44.4314 28.8497C44.635 28.9303 44.831 29.0328 45.0082 29.15C45.1816 29.2636 45.34 29.3881 45.487 29.5309C45.4946 29.5382 45.5059 29.5455 45.5134 29.5529C45.668 29.703 45.8075 29.8641 45.9281 30.0436L45.9357 30.0546C46.0525 30.2267 46.1543 30.4098 46.2373 30.6075C46.3202 30.8016 46.3843 31.0067 46.4295 31.2118C46.471 31.4169 46.4899 31.6293 46.4899 31.8417C46.4899 32.0541 46.4672 32.2701 46.4295 32.4716C46.3843 32.6766 46.324 32.8817 46.2373 33.0795C46.1543 33.2772 46.0488 33.4677 45.9281 33.6398C45.8037 33.8229 45.6642 33.984 45.5134 34.1305C45.3588 34.2806 45.1929 34.4161 45.0082 34.5333L44.9969 34.5407C44.8159 34.6542 44.6312 34.7531 44.4276 34.8336C44.2278 34.9142 44.0167 34.9764 43.8018 35.0204C43.5907 35.0607 43.372 35.079 43.1533 35.079C42.9347 35.079 42.7122 35.057 42.5049 35.0204C42.2937 34.9764 42.0826 34.9178 41.879 34.8336C41.6717 34.7494 41.4756 34.6469 41.3022 34.5333L41.2833 34.5187C41.1061 34.4015 40.944 34.2733 40.797 34.1305C40.6424 33.9803 40.5029 33.8192 40.3823 33.6398L40.3748 33.6288C40.2579 33.4567 40.1561 33.2736 40.0731 33.0758C39.9902 32.8817 39.9261 32.6766 39.8809 32.4716C39.8394 32.2665 39.8168 32.0541 39.8168 31.8417C39.8168 31.6293 39.8394 31.4132 39.8809 31.2118C39.9261 31.0067 39.9864 30.8016 40.0731 30.6075C40.1561 30.4098 40.2616 30.2194 40.3823 30.0472C40.5067 29.8641 40.6462 29.703 40.797 29.5565C40.9478 29.41 41.1175 29.2745 41.3022 29.1537C41.4832 29.0365 41.6754 28.9376 41.879 28.8497C42.0788 28.7692 42.29 28.7069 42.5011 28.6666C42.7235 28.6263 42.9422 28.6044 43.1609 28.6044ZM19.6618 29.3698V40.3524C19.6618 40.942 19.7824 41.506 20.0011 42.0223C20.2311 42.557 20.5666 43.0404 20.9813 43.4469C21.3998 43.8534 21.8975 44.1793 22.4479 44.3991C22.9757 44.6115 23.5563 44.7286 24.1671 44.7286H46.9234C47.5304 44.7286 48.111 44.6115 48.6426 44.3991C49.193 44.1757 49.6907 43.8497 50.1092 43.4469C50.5276 43.0404 50.8632 42.557 51.0894 42.0223C51.3081 41.5096 51.4287 40.9457 51.4287 40.3524V28.0697C51.4287 27.4801 51.3081 26.9125 51.0894 26.3998C50.8594 25.8651 50.5239 25.3817 50.1092 24.9752C49.6907 24.5687 49.193 24.2428 48.6426 24.0231C48.1148 23.8107 47.5342 23.6935 46.9234 23.6935H24.1708C23.5638 23.6935 22.9832 23.8107 22.4517 24.0231C21.9012 24.2465 21.4036 24.5724 20.9851 24.9752C20.5666 25.3817 20.2311 25.8651 20.0049 26.3998C19.7862 26.9125 19.6655 27.4764 19.6655 28.0697L19.6618 29.3698ZM18.199 30.0765H15.5976C15.443 30.0765 15.296 30.1058 15.164 30.1571C15.0245 30.2157 14.9001 30.2963 14.7946 30.3988L14.7795 30.4098C14.6815 30.5087 14.5985 30.6259 14.5457 30.754C14.4892 30.8822 14.4628 31.025 14.4628 31.1752V37.9061C14.4628 38.0563 14.493 38.1991 14.5457 38.3273C14.6061 38.4628 14.689 38.5836 14.7946 38.6862C14.9982 38.8839 15.2809 39.0084 15.5938 39.0084H18.199V30.0765ZM55.4062 30.0765H52.8953V39.0084H55.4062C55.5607 39.0084 55.7078 38.9791 55.8397 38.9279C55.9792 38.8693 56.1036 38.7887 56.2092 38.6862C56.3148 38.5836 56.4015 38.4628 56.458 38.3273C56.5146 38.1991 56.541 38.0563 56.541 37.9061V31.1788C56.541 31.0287 56.5108 30.8859 56.458 30.7577C56.3977 30.6222 56.3148 30.5013 56.2092 30.3988C56.1036 30.2963 55.9792 30.212 55.8397 30.1571C55.7078 30.1095 55.5607 30.0765 55.4062 30.0765Z" fill="url(#paint1_linear_1402_948)"/>
</g>
<defs>
<linearGradient id="paint0_linear_1402_948" x1="36" y1="72" x2="36" y2="-6" gradientUnits="userSpaceOnUse">
<stop stop-color="#0C3483"/>
<stop offset="1" stop-color="#A2B6DF"/>
<stop offset="1" stop-color="#6B8CCE"/>
</linearGradient>
<linearGradient id="paint1_linear_1402_948" x1="35.4962" y1="58.9962" x2="35.4962" y2="10.2502" gradientUnits="userSpaceOnUse">
<stop stop-color="#0C3483"/>
<stop offset="1" stop-color="#A2B6DF"/>
<stop offset="1" stop-color="#6B8CCE"/>
</linearGradient>
<clipPath id="clip0_1402_948">
<rect width="45" height="45" fill="white" transform="translate(13 13.9999)"/>
</clipPath>
</defs>
</svg>
