<svg width="72" height="72" viewBox="0 0 72 72" fill="none" xmlns="http://www.w3.org/2000/svg">
<rect x="1" y="1" width="70" height="70" rx="35" stroke="url(#paint0_linear_1402_957)" stroke-width="2"/>
<g clip-path="url(#clip0_1402_957)">
<path fill-rule="evenodd" clip-rule="evenodd" d="M29.5595 31.1112C30.5994 31.1137 31.6152 31.4325 32.4787 32.0274C33.3421 32.6223 34.0145 33.4665 34.4107 34.4535C34.807 35.4405 34.9094 36.5259 34.7051 37.5725C34.5007 38.6192 33.9987 39.5803 33.2626 40.3343C32.5264 41.0882 31.5891 41.6013 30.569 41.8086C29.5489 42.016 28.4918 41.9083 27.5313 41.4992C26.5708 41.0901 25.75 40.398 25.1725 39.5102C24.595 38.6224 24.2868 37.5789 24.2868 36.5113C24.2868 35.8011 24.4233 35.0979 24.6884 34.4419C24.9535 33.7859 25.3421 33.19 25.8319 32.6884C26.3217 32.1868 26.903 31.7893 27.5426 31.5186C28.1823 31.248 28.8676 31.1095 29.5595 31.1112ZM42.1514 48.5445V45.802H34.8444C35.4791 45.2129 36.0577 44.5631 36.5723 43.8615H43.0919C43.3414 43.8623 43.5805 43.9642 43.7572 44.145C43.9339 44.3258 44.034 44.5709 44.0356 44.827V48.5445C44.6449 48.7719 45.1567 49.2125 45.481 49.7888C45.8054 50.3651 45.9215 51.0403 45.809 51.6958C45.6966 52.3513 45.3627 52.9451 44.8661 53.373C44.3694 53.8009 43.7418 54.0354 43.0935 54.0354C42.4451 54.0354 41.8175 53.8009 41.3209 53.373C40.8243 52.9451 40.4904 52.3513 40.3779 51.6958C40.2655 51.0403 40.3816 50.3651 40.7059 49.7888C41.0303 49.2125 41.5421 48.7719 42.1514 48.5445ZM41.4927 28.6391H37.3107C36.9047 27.9541 36.4424 27.306 35.929 26.7017H40.5521V24.5002C39.9407 24.2789 39.4247 23.8434 39.0949 23.2704C38.7652 22.6974 38.6426 22.0234 38.7489 21.3668C38.8551 20.7102 39.1833 20.1131 39.6758 19.6803C40.1684 19.2474 40.7937 19.0066 41.442 19.0001C42.0904 18.9936 42.7202 19.2219 43.2208 19.6447C43.7215 20.0676 44.061 20.6581 44.1797 21.3124C44.2984 21.9667 44.1887 22.6431 43.8698 23.2226C43.551 23.8021 43.0434 24.2478 42.4363 24.4813V27.6736C42.4363 27.8006 42.4119 27.9264 42.3644 28.0438C42.317 28.1611 42.2474 28.2677 42.1597 28.3574C42.0721 28.4471 41.968 28.5182 41.8536 28.5665C41.7391 28.6149 41.6165 28.6395 41.4927 28.6391ZM51.8236 23.6981C51.8223 23.1889 51.6872 22.6894 51.4325 22.2523C51.1778 21.8153 50.8129 21.4569 50.3764 21.2149C49.9399 20.9729 49.4478 20.8563 48.9522 20.8773C48.4565 20.8984 47.9755 21.0564 47.56 21.3346C47.1444 21.6128 46.8097 22.0009 46.5911 22.4581C46.3724 22.9152 46.278 23.4245 46.3177 23.9321C46.3574 24.4398 46.5299 24.927 46.8168 25.3425C47.1037 25.758 47.4945 26.0863 47.948 26.2929V31.9541H38.7231C38.8982 32.5894 39.0283 33.2369 39.1122 33.8915H48.8885C49.138 33.8898 49.3768 33.7871 49.5529 33.6057C49.729 33.4243 49.8283 33.1789 49.8291 32.9228V26.425C50.405 26.2547 50.9113 25.8965 51.2712 25.4045C51.6311 24.9124 51.825 24.3134 51.8236 23.6981ZM51.7776 39.4017C51.7845 38.731 51.5592 38.0796 51.1418 37.5636C50.7244 37.0476 50.1421 36.7005 49.4986 36.5842C48.8552 36.4679 48.1924 36.5899 47.6284 36.9285C47.0644 37.2671 46.6359 37.8003 46.4192 38.433H38.9559C38.8262 39.0907 38.648 39.7373 38.4228 40.3672H46.4192C46.6358 40.9997 47.0641 41.5327 47.6277 41.8713C48.1914 42.2099 48.8538 42.3322 49.4971 42.2163C50.1403 42.1003 50.7226 41.7538 51.1402 41.2384C51.5579 40.723 51.7837 40.0721 51.7776 39.4017ZM29.3603 52.0985H28.2696C27.7731 52.0977 27.2972 51.8951 26.9458 51.535C26.5944 51.1748 26.3963 50.6865 26.3947 50.1769V48.208C25.3241 47.9615 24.2927 47.5613 23.3309 47.0192L22.0503 48.3338C21.6983 48.6935 21.2219 48.8955 20.7252 48.8955C20.2286 48.8955 19.7521 48.6935 19.4002 48.3338L17.853 46.733C17.5033 46.3712 17.3071 45.8823 17.3071 45.3727C17.3071 44.8631 17.5033 44.3741 17.853 44.0124L19.0203 42.8141C18.4092 41.807 17.9476 40.712 17.6508 39.5652H16.0515C15.555 39.5644 15.079 39.3618 14.7277 39.0017C14.3763 38.6416 14.1781 38.1533 14.1765 37.6436V35.3791C14.1761 35.1259 14.2243 34.8751 14.3183 34.6411C14.4123 34.407 14.5503 34.1942 14.7244 34.0149C14.8985 33.8356 15.1053 33.6932 15.333 33.596C15.5607 33.4987 15.8049 33.4484 16.0515 33.448H17.6201C17.911 32.2898 18.3695 31.183 18.9804 30.1645L17.853 29.0071C17.5042 28.6455 17.3086 28.1572 17.3086 27.6484C17.3086 27.1396 17.5042 26.6513 17.853 26.2897L19.4124 24.6889C19.7644 24.3291 20.2408 24.1272 20.7375 24.1272C21.2341 24.1272 21.7106 24.3291 22.0625 24.6889L23.288 25.9469C24.2605 25.391 25.3057 24.9811 26.3916 24.7297V22.8427C26.394 22.333 26.593 21.845 26.9449 21.4855C27.2968 21.126 27.7731 20.9242 28.2696 20.9242H30.4725C30.9519 20.9275 31.4119 21.119 31.7582 21.4593C32.1045 21.7997 32.311 22.2631 32.3352 22.7546V29.1958C31.5075 28.8865 30.6333 28.729 29.7525 28.7303C29.6208 28.7303 29.489 28.7303 29.3603 28.7303C29.2317 28.7303 29.0999 28.7303 28.9712 28.7303C27.9685 28.7096 26.9718 28.8944 26.0395 29.274C25.1073 29.6536 24.2581 30.2203 23.5418 30.9409C22.8255 31.6615 22.2565 32.5217 21.868 33.4709C21.4795 34.4201 21.2794 35.4393 21.2794 36.4689C21.2794 37.4985 21.4795 38.5177 21.868 39.4669C22.2565 40.4161 22.8255 41.2762 23.5418 41.9969C24.2581 42.7175 25.1073 43.2842 26.0395 43.6638C26.9718 44.0434 27.9685 44.2282 28.9712 44.2074C29.0999 44.2074 29.2317 44.2074 29.3603 44.2074C29.489 44.2074 29.6208 44.2074 29.7525 44.2074C30.6333 44.2088 31.5075 44.0512 32.3352 43.742V50.2681C32.3109 50.7612 32.1032 51.226 31.7549 51.5666C31.4066 51.9071 30.9443 52.0975 30.4633 52.0985H29.3603Z" fill="url(#paint1_linear_1402_957)"/>
</g>
<defs>
<linearGradient id="paint0_linear_1402_957" x1="36" y1="72" x2="36" y2="-6" gradientUnits="userSpaceOnUse">
<stop stop-color="#0C3483"/>
<stop offset="1" stop-color="#A2B6DF"/>
<stop offset="1" stop-color="#6B8CCE"/>
</linearGradient>
<linearGradient id="paint1_linear_1402_957" x1="33" y1="54.0354" x2="33" y2="16.0804" gradientUnits="userSpaceOnUse">
<stop stop-color="#0C3483"/>
<stop offset="1" stop-color="#A2B6DF"/>
<stop offset="1" stop-color="#6B8CCE"/>
</linearGradient>
<clipPath id="clip0_1402_957">
<rect width="39.5294" height="35" fill="white" transform="translate(13.2354 19)"/>
</clipPath>
</defs>
</svg>
