<svg width="40" height="40" viewBox="0 0 40 40" fill="none" xmlns="http://www.w3.org/2000/svg">
<path d="M38.3333 5.01676C38.3333 5.01676 34.97 7.00343 33.1 7.56676C32.0962 6.41261 30.7622 5.59458 29.2784 5.2233C27.7945 4.85203 26.2325 4.94542 24.8034 5.49085C23.3744 6.03628 22.1474 7.00743 21.2883 8.27295C20.4292 9.53848 19.9795 11.0373 20 12.5668V14.2334C17.071 14.3094 14.1688 13.6598 11.5516 12.3425C8.93453 11.0252 6.68382 9.08115 4.99996 6.68343C4.99996 6.68343 -1.66671 21.6834 13.3333 28.3501C9.90084 30.68 5.81189 31.8483 1.66663 31.6834C16.6666 40.0168 35 31.6834 35 12.5168C35 12.0534 34.9533 11.5901 34.8666 11.1334C36.5666 9.45676 38.3333 5.01676 38.3333 5.01676Z" stroke="url(#paint0_linear_250_334)" stroke-width="1.5" stroke-linecap="round" stroke-linejoin="round"/>
<defs>
<linearGradient id="paint0_linear_250_334" x1="1.66663" y1="19.9531" x2="38.3333" y2="19.9531" gradientUnits="userSpaceOnUse">
<stop stop-color="#0C3483"/>
<stop offset="1" stop-color="#A2B6DF"/>
<stop offset="1" stop-color="#6B8CCE"/>
</linearGradient>
</defs>
</svg>
