<svg width="72" height="72" viewBox="0 0 72 72" fill="none" xmlns="http://www.w3.org/2000/svg">
<rect x="1" y="1" width="70" height="70" rx="35" stroke="url(#paint0_linear_1402_931)" stroke-width="2"/>
<g clip-path="url(#clip0_1402_931)">
<path fill-rule="evenodd" clip-rule="evenodd" d="M45.7757 36.0065H51.4712V35.4201C51.1463 34.3146 50.6277 33.5656 49.9557 33.109C49.2853 32.6539 48.4136 32.4585 47.3919 32.4655L23.4652 32.4702C22.8904 32.4702 22.4239 32.0433 22.4239 31.5163C22.4239 30.9894 22.8904 30.5617 23.4652 30.5617L26.5211 30.5625C26.1049 29.9902 25.7561 29.3733 25.484 28.7228C25.3237 28.3374 25.1889 27.941 25.084 27.5336H21.6316C20.6567 27.5336 19.7689 27.9003 19.1249 28.4906C18.4819 29.0801 18.0819 29.894 18.0819 30.7877V50.8373C18.0819 51.7294 18.4827 52.5433 19.1267 53.1328C19.768 53.7254 20.6559 54.0914 21.6316 54.0914H47.9215C48.8947 54.0914 49.7825 53.7239 50.4273 53.1344C51.0704 52.5433 51.4712 51.7294 51.4712 50.8373V47.9765H45.7757C44.0162 47.9765 42.4171 47.3167 41.2606 46.2565L41.1514 46.1478C40.0588 45.0931 39.3842 43.6717 39.3842 42.1174V41.8656C39.3842 40.2605 40.1032 38.7969 41.2606 37.7328L41.2716 37.7226C42.4316 36.664 44.0264 36.0065 45.7757 36.0065ZM32.2823 26.7447V22.4852C32.3104 22.1592 32.0768 22.0537 31.7015 22.0654H30.8V20.9176H32.7377V19.9614H33.8345V20.9176H34.6934V19.9614H35.7893V20.9341C36.0307 20.9411 36.2729 20.9513 36.4938 20.963C37.4908 21.0162 38.1842 21.1655 38.6277 22.0576C38.7497 22.3031 38.8162 22.5697 38.8162 22.8324C38.8162 23.1756 38.7258 23.3773 38.5441 23.6549C38.3625 23.9309 38.0955 24.1271 37.745 24.2694C40.3557 24.5665 39.8763 27.9746 37.142 28.2388C36.9109 28.2607 36.3446 28.2873 35.7893 28.3053V29.2771H34.6934V28.3241H33.8345V29.2771H32.7377V28.3241H30.8L31.0695 27.2138H31.9352C32.2124 27.2506 32.307 27.0692 32.2823 26.7447ZM35.7893 22.2609V23.9324C37.0925 23.6424 37.0072 22.5705 35.7893 22.2609ZM35.7893 24.959V27.0278C35.9275 27.016 36.0469 27.0012 36.1467 26.984C37.4687 26.7572 37.7748 25.3398 36.1936 25.0192C36.0785 24.995 35.9429 24.9746 35.7893 24.959ZM34.6934 27.0653V24.9207H34.2431V27.0653H34.6934ZM34.6934 24.0044V22.1764H34.2431V24.0044H34.6934ZM28.7062 30.5625L41.362 30.5641C42.707 29.1864 43.5258 27.3679 43.5258 25.3734C43.5258 21.0732 39.7245 17.5893 35.0354 17.5893C30.3454 17.5893 26.5441 21.0732 26.5441 25.3734C26.5441 27.3679 27.3612 29.1857 28.7062 30.5625ZM43.5463 30.5641L47.3638 30.5648C48.8324 30.5523 50.1279 30.8588 51.1915 31.5812C51.287 31.6461 51.38 31.7141 51.4712 31.7853V30.7877C51.4712 29.8971 51.0704 29.0825 50.4256 28.4914C49.7851 27.9003 48.8989 27.5336 47.9215 27.5336H44.9859C44.881 27.9402 44.7463 28.3374 44.5859 28.722C44.313 29.3733 43.9633 29.991 43.5463 30.5641ZM45.2563 25.6251H47.9215C49.4661 25.6251 50.8742 26.2076 51.896 27.1443C52.9186 28.0778 53.5531 29.3702 53.5531 30.7877V36.0596C54.1535 36.1699 54.6917 36.4427 55.1079 36.8243C55.6571 37.3278 56 38.026 56 38.7945V45.0696C56 45.864 55.6435 46.5911 55.0652 47.1204C54.6509 47.505 54.1269 47.7751 53.5531 47.8999V50.8373C53.5531 52.2517 52.9177 53.5417 51.8977 54.4776L51.8925 54.4815C50.8725 55.4166 49.4644 55.9998 47.9215 55.9998H21.6316C20.0887 55.9998 18.6797 55.4174 17.6563 54.4807C16.6345 53.548 16 52.2571 16 50.8373V30.7877C16 29.367 16.6337 28.0754 17.6537 27.1411C18.6729 26.206 20.081 25.6251 21.6316 25.6251H24.8136L24.8094 25.3734C24.8094 22.7855 25.9548 20.4407 27.8047 18.7449L27.9113 18.655C29.7535 17.0123 32.267 15.9998 35.0354 15.9998C37.8584 15.9998 40.4154 17.0491 42.2652 18.7449L42.3633 18.8426C44.1561 20.5314 45.2597 22.8355 45.2597 25.3734L45.2563 25.6251ZM46.3028 39.5991C46.9885 39.5991 47.6111 39.8547 48.0631 40.2683C48.5168 40.685 48.7957 41.2558 48.7957 41.8844C48.7957 42.513 48.5168 43.0845 48.0657 43.4981C47.6111 43.9141 46.9885 44.1697 46.3028 44.1697C45.6179 44.1697 44.9953 43.9133 44.5433 43.5005L44.539 43.4958C44.0878 43.0814 43.8098 42.5114 43.8098 41.8844C43.8098 41.2566 44.0896 40.6858 44.5407 40.2714L44.545 40.2675C44.9962 39.8547 45.6179 39.5991 46.3028 39.5991Z" fill="url(#paint1_linear_1402_931)"/>
</g>
<defs>
<linearGradient id="paint0_linear_1402_931" x1="36" y1="72" x2="36" y2="-6" gradientUnits="userSpaceOnUse">
<stop stop-color="#0C3483"/>
<stop offset="1" stop-color="#A2B6DF"/>
<stop offset="1" stop-color="#6B8CCE"/>
</linearGradient>
<linearGradient id="paint1_linear_1402_931" x1="36" y1="55.9998" x2="36" y2="12.6665" gradientUnits="userSpaceOnUse">
<stop stop-color="#0C3483"/>
<stop offset="1" stop-color="#A2B6DF"/>
<stop offset="1" stop-color="#6B8CCE"/>
</linearGradient>
<clipPath id="clip0_1402_931">
<rect width="40" height="40" fill="white" transform="translate(16 15.9998)"/>
</clipPath>
</defs>
</svg>
